<svg xmlns="http://www.w3.org/2000/svg" xmlns:xlink="http://www.w3.org/1999/xlink" width="4000" zoomAndPan="magnify" viewBox="0 0 3000 880.499974" height="1174" preserveAspectRatio="xMidYMid meet" version="1.0"><defs><g/><clipPath id="3c38c2b2be"><path d="M 527 202 L 889 202 L 889 786.429688 L 527 786.429688 Z M 527 202 " clip-rule="nonzero"/></clipPath><clipPath id="9b20fbb183"><path d="M 527 93.824219 L 1267.933594 93.824219 L 1267.933594 279 L 527 279 Z M 527 93.824219 " clip-rule="nonzero"/></clipPath><clipPath id="c5bf828ffe"><path d="M 906 202 L 1267.933594 202 L 1267.933594 786.429688 L 906 786.429688 Z M 906 202 " clip-rule="nonzero"/></clipPath><clipPath id="f65c48898f"><path d="M 88.851562 202 L 191 202 L 191 254 L 88.851562 254 Z M 88.851562 202 " clip-rule="nonzero"/></clipPath></defs><g clip-path="url(#3c38c2b2be)"><path fill="#024bbe" d="M 864.726562 320.066406 L 527.207031 202.945312 L 527.207031 661.132812 L 888.199219 786.394531 Z M 864.726562 320.066406 " fill-opacity="1" fill-rule="evenodd"/></g><g clip-path="url(#9b20fbb183)"><path fill="#024bbe" d="M 897.492188 93.507812 L 1267.78125 186.082031 L 897.492188 278.65625 L 527.207031 186.082031 Z M 897.492188 93.507812 " fill-opacity="1" fill-rule="evenodd"/></g><g clip-path="url(#c5bf828ffe)"><path fill="#024bbe" d="M 930.261719 320.066406 L 1267.78125 202.945312 L 1267.78125 661.132812 L 906.785156 786.394531 Z M 930.261719 320.066406 " fill-opacity="1" fill-rule="evenodd"/></g><path fill="#024bbe" d="M 527.207031 202.945312 L 248.953125 202.945312 C 234.957031 202.945312 223.507812 214.398438 223.507812 228.402344 C 223.507812 242.398438 234.957031 253.859375 248.953125 253.859375 L 527.207031 253.859375 C 541.207031 253.859375 552.660156 242.398438 552.660156 228.402344 Z M 527.207031 202.945312 " fill-opacity="1" fill-rule="evenodd"/><path fill="#024bbe" d="M 527.207031 304.765625 L 317.703125 304.765625 C 303.699219 304.765625 292.246094 316.222656 292.246094 330.21875 C 292.246094 344.222656 303.695312 355.675781 317.703125 355.675781 L 527.207031 355.675781 C 541.210938 355.675781 552.664062 344.226562 552.664062 330.21875 C 552.660156 316.222656 541.210938 304.765625 527.207031 304.765625 " fill-opacity="1" fill-rule="evenodd"/><path fill="#024bbe" d="M 527.207031 406.585938 L 289.644531 406.585938 C 275.648438 406.585938 264.199219 418.035156 264.199219 432.035156 L 264.199219 432.042969 C 264.199219 446.039062 275.648438 457.5 289.644531 457.5 L 527.207031 457.5 C 541.207031 457.5 552.660156 446.039062 552.660156 432.042969 L 552.660156 432.035156 C 552.660156 418.039062 541.210938 406.585938 527.207031 406.585938 " fill-opacity="1" fill-rule="evenodd"/><path fill="#024bbe" d="M 527.207031 508.402344 L 429.914062 508.402344 C 415.910156 508.402344 404.457031 519.851562 404.457031 533.859375 C 404.457031 547.863281 415.90625 559.3125 429.914062 559.3125 L 527.207031 559.3125 C 541.207031 559.3125 552.660156 547.863281 552.660156 533.859375 C 552.660156 519.851562 541.210938 508.402344 527.207031 508.402344 " fill-opacity="1" fill-rule="evenodd"/><path fill="#024bbe" d="M 527.207031 610.222656 L 360.554688 610.222656 C 346.550781 610.222656 335.097656 621.671875 335.097656 635.679688 C 335.097656 649.683594 346.546875 661.136719 360.554688 661.136719 L 527.207031 661.136719 C 541.207031 661.136719 552.660156 649.683594 552.660156 635.679688 C 552.660156 621.671875 541.210938 610.222656 527.207031 610.222656 " fill-opacity="1" fill-rule="evenodd"/><path fill="#024bbe" d="M 349.542969 508.402344 L 297.128906 508.402344 C 283.132812 508.402344 271.683594 519.851562 271.683594 533.859375 C 271.683594 547.863281 283.132812 559.3125 297.128906 559.3125 L 349.542969 559.3125 C 363.542969 559.3125 375 547.863281 375 533.859375 C 374.996094 519.851562 363.539062 508.402344 349.542969 508.402344 " fill-opacity="1" fill-rule="evenodd"/><path fill="#024bbe" d="M 239.203125 304.765625 L 151.261719 304.765625 C 137.257812 304.765625 125.804688 316.222656 125.804688 330.21875 C 125.804688 344.222656 137.253906 355.675781 151.261719 355.675781 L 239.203125 355.675781 C 253.207031 355.675781 264.65625 344.226562 264.65625 330.21875 C 264.65625 316.222656 253.207031 304.765625 239.203125 304.765625 " fill-opacity="1" fill-rule="evenodd"/><g clip-path="url(#f65c48898f)"><path fill="#024bbe" d="M 164.875 202.945312 L 114.308594 202.945312 C 100.300781 202.945312 88.851562 214.398438 88.851562 228.402344 C 88.851562 242.398438 100.300781 253.859375 114.308594 253.859375 L 164.875 253.859375 C 178.871094 253.859375 190.320312 242.398438 190.320312 228.402344 C 190.320312 214.398438 178.871094 202.945312 164.875 202.945312 " fill-opacity="1" fill-rule="evenodd"/></g><g fill="#024bbe" fill-opacity="1"><g transform="translate(1267.781701, 525.258828)"><g><path d="M 83.25 4.109375 C 126.515625 4.109375 156.09375 -17.796875 156.09375 -55.859375 C 156.09375 -96.125 124.59375 -107.078125 95.03125 -115.828125 C 69.015625 -123.5 62.15625 -128.15625 62.15625 -136.640625 C 62.15625 -143.5 67.90625 -149.25 79.96875 -149.25 C 93.921875 -149.25 103.78125 -142.125 109.8125 -127.890625 L 150.890625 -151.984375 C 137.46875 -180.734375 111.453125 -195.796875 79.6875 -195.796875 C 42.453125 -195.796875 13.140625 -172.25 13.140625 -136.375 C 13.140625 -100.5 39.984375 -85.171875 70.109375 -76.40625 C 94.46875 -69.5625 107.078125 -66.265625 107.078125 -55.3125 C 107.078125 -48.75 101.875 -42.453125 84.625 -42.453125 C 65.453125 -42.453125 53.671875 -51.484375 46.828125 -67.90625 L 4.921875 -43.546875 C 15.0625 -15.328125 41.625 4.109375 83.25 4.109375 Z M 83.25 4.109375 "/></g></g></g><g fill="#024bbe" fill-opacity="1"><g transform="translate(1441.671214, 525.258828)"><g><path d="M 120.765625 -191.6875 L 120.765625 -95.296875 L 53.125 -191.6875 L 15.0625 -191.6875 L 15.0625 0 L 64.078125 0 L 64.078125 -96.390625 L 131.71875 0 L 169.515625 0 L 169.515625 -191.6875 Z M 120.765625 -191.6875 "/></g></g></g><g fill="#024bbe" fill-opacity="1"><g transform="translate(1640.206423, 525.258828)"><g><path d="M 132 0 L 184.84375 0 L 121.59375 -191.6875 L 61.890625 -191.6875 L -1.375 0 L 51.75 0 L 59.96875 -27.65625 L 123.78125 -27.65625 Z M 72.5625 -69.828125 L 91.734375 -135 L 111.1875 -69.828125 Z M 72.5625 -69.828125 "/></g></g></g><g fill="#024bbe" fill-opacity="1"><g transform="translate(1837.646278, 525.258828)"><g><path d="M 136.09375 -99.125 C 147.328125 -107.890625 153.90625 -120.765625 153.90625 -137.203125 C 153.90625 -171.15625 128.703125 -191.6875 90.640625 -191.6875 L 15.0625 -191.6875 L 15.0625 0 L 95.84375 0 C 134.734375 0 160.203125 -22.1875 160.203125 -56.140625 C 160.203125 -75.578125 150.890625 -90.375 136.09375 -99.125 Z M 89.265625 -147.875 C 98.03125 -147.875 104.875 -142.125 104.875 -132.8125 C 104.875 -122.953125 97.765625 -117.75 89.265625 -117.75 L 64.078125 -117.75 L 64.078125 -147.875 Z M 94.46875 -43.8125 L 64.078125 -43.8125 L 64.078125 -76.125 L 94.46875 -76.125 C 104.328125 -76.125 111.1875 -69.828125 111.1875 -59.96875 C 111.1875 -50.65625 104.328125 -43.8125 94.46875 -43.8125 Z M 94.46875 -43.8125 "/></g></g></g><g fill="#024bbe" fill-opacity="1"><g transform="translate(2016.191089, 525.258828)"><g><path d="M 136.09375 -99.125 C 147.328125 -107.890625 153.90625 -120.765625 153.90625 -137.203125 C 153.90625 -171.15625 128.703125 -191.6875 90.640625 -191.6875 L 15.0625 -191.6875 L 15.0625 0 L 95.84375 0 C 134.734375 0 160.203125 -22.1875 160.203125 -56.140625 C 160.203125 -75.578125 150.890625 -90.375 136.09375 -99.125 Z M 89.265625 -147.875 C 98.03125 -147.875 104.875 -142.125 104.875 -132.8125 C 104.875 -122.953125 97.765625 -117.75 89.265625 -117.75 L 64.078125 -117.75 L 64.078125 -147.875 Z M 94.46875 -43.8125 L 64.078125 -43.8125 L 64.078125 -76.125 L 94.46875 -76.125 C 104.328125 -76.125 111.1875 -69.828125 111.1875 -59.96875 C 111.1875 -50.65625 104.328125 -43.8125 94.46875 -43.8125 Z M 94.46875 -43.8125 "/></g></g></g><g fill="#024bbe" fill-opacity="1"><g transform="translate(2194.735901, 525.258828)"><g><path d="M 93.109375 -191.6875 L 15.0625 -191.6875 L 15.0625 0 L 93.109375 0 C 145.953125 0 186.21875 -41.625 186.21875 -95.84375 C 186.21875 -150.0625 145.953125 -191.6875 93.109375 -191.6875 Z M 93.109375 -47.375 L 65.453125 -47.375 L 65.453125 -144.3125 L 93.109375 -144.3125 C 119.390625 -144.3125 138.296875 -125.140625 138.296875 -95.84375 C 138.296875 -66.546875 119.390625 -47.375 93.109375 -47.375 Z M 93.109375 -47.375 "/></g></g></g><g fill="#024bbe" fill-opacity="1"><g transform="translate(2402.307864, 525.258828)"><g><path d="M 64.078125 -46 L 64.078125 -74.21875 L 130.078125 -74.21875 L 130.078125 -119.390625 L 64.078125 -119.390625 L 64.078125 -145.953125 L 136.921875 -145.953125 L 136.921875 -191.6875 L 15.0625 -191.6875 L 15.0625 0 L 138.296875 0 L 138.296875 -46 Z M 64.078125 -46 "/></g></g></g><g fill="#024bbe" fill-opacity="1"><g transform="translate(2562.505308, 525.258828)"><g><path d="M 132 0 L 184.84375 0 L 121.59375 -191.6875 L 61.890625 -191.6875 L -1.375 0 L 51.75 0 L 59.96875 -27.65625 L 123.78125 -27.65625 Z M 72.5625 -69.828125 L 91.734375 -135 L 111.1875 -69.828125 Z M 72.5625 -69.828125 "/></g></g></g><g fill="#024bbe" fill-opacity="1"><g transform="translate(2759.945119, 525.258828)"><g><path d="M 64.078125 -47.375 L 64.078125 -191.6875 L 15.0625 -191.6875 L 15.0625 0 L 130.078125 0 L 130.078125 -47.375 Z M 64.078125 -47.375 "/></g></g></g></svg>