<svg xmlns="http://www.w3.org/2000/svg" xmlns:xlink="http://www.w3.org/1999/xlink" width="4000" zoomAndPan="magnify" viewBox="0 0 3000 880.499974" height="1174" preserveAspectRatio="xMidYMid meet" version="1.0"><defs><g/><clipPath id="8f740a8520"><path d="M 527 202 L 889 202 L 889 786.429688 L 527 786.429688 Z M 527 202 " clip-rule="nonzero"/></clipPath><clipPath id="8c544b8ff7"><path d="M 527 93.824219 L 1267.933594 93.824219 L 1267.933594 279 L 527 279 Z M 527 93.824219 " clip-rule="nonzero"/></clipPath><clipPath id="5bc1878e28"><path d="M 906 202 L 1267.933594 202 L 1267.933594 786.429688 L 906 786.429688 Z M 906 202 " clip-rule="nonzero"/></clipPath><clipPath id="9e7796f2c9"><path d="M 88.851562 202 L 191 202 L 191 254 L 88.851562 254 Z M 88.851562 202 " clip-rule="nonzero"/></clipPath></defs><g clip-path="url(#8f740a8520)"><path fill="#023e8a" d="M 864.726562 320.066406 L 527.207031 202.945312 L 527.207031 661.132812 L 888.199219 786.394531 Z M 864.726562 320.066406 " fill-opacity="1" fill-rule="evenodd"/></g><g clip-path="url(#8c544b8ff7)"><path fill="#023e8a" d="M 897.492188 93.507812 L 1267.78125 186.082031 L 897.492188 278.65625 L 527.207031 186.082031 Z M 897.492188 93.507812 " fill-opacity="1" fill-rule="evenodd"/></g><g clip-path="url(#5bc1878e28)"><path fill="#023e8a" d="M 930.261719 320.066406 L 1267.78125 202.945312 L 1267.78125 661.132812 L 906.785156 786.394531 Z M 930.261719 320.066406 " fill-opacity="1" fill-rule="evenodd"/></g><path fill="#023e8a" d="M 527.207031 202.945312 L 248.953125 202.945312 C 234.957031 202.945312 223.507812 214.398438 223.507812 228.402344 C 223.507812 242.398438 234.957031 253.859375 248.953125 253.859375 L 527.207031 253.859375 C 541.207031 253.859375 552.660156 242.398438 552.660156 228.402344 Z M 527.207031 202.945312 " fill-opacity="1" fill-rule="evenodd"/><path fill="#023e8a" d="M 527.207031 304.765625 L 317.703125 304.765625 C 303.699219 304.765625 292.246094 316.222656 292.246094 330.21875 C 292.246094 344.222656 303.695312 355.675781 317.703125 355.675781 L 527.207031 355.675781 C 541.210938 355.675781 552.664062 344.226562 552.664062 330.21875 C 552.660156 316.222656 541.210938 304.765625 527.207031 304.765625 " fill-opacity="1" fill-rule="evenodd"/><path fill="#023e8a" d="M 527.207031 406.585938 L 289.644531 406.585938 C 275.648438 406.585938 264.199219 418.035156 264.199219 432.035156 L 264.199219 432.042969 C 264.199219 446.039062 275.648438 457.5 289.644531 457.5 L 527.207031 457.5 C 541.207031 457.5 552.660156 446.039062 552.660156 432.042969 L 552.660156 432.035156 C 552.660156 418.039062 541.210938 406.585938 527.207031 406.585938 " fill-opacity="1" fill-rule="evenodd"/><path fill="#023e8a" d="M 527.207031 508.402344 L 429.914062 508.402344 C 415.910156 508.402344 404.457031 519.851562 404.457031 533.859375 C 404.457031 547.863281 415.90625 559.3125 429.914062 559.3125 L 527.207031 559.3125 C 541.207031 559.3125 552.660156 547.863281 552.660156 533.859375 C 552.660156 519.851562 541.210938 508.402344 527.207031 508.402344 " fill-opacity="1" fill-rule="evenodd"/><path fill="#023e8a" d="M 527.207031 610.222656 L 360.554688 610.222656 C 346.550781 610.222656 335.097656 621.671875 335.097656 635.679688 C 335.097656 649.683594 346.546875 661.136719 360.554688 661.136719 L 527.207031 661.136719 C 541.207031 661.136719 552.660156 649.683594 552.660156 635.679688 C 552.660156 621.671875 541.210938 610.222656 527.207031 610.222656 " fill-opacity="1" fill-rule="evenodd"/><path fill="#023e8a" d="M 349.542969 508.402344 L 297.128906 508.402344 C 283.132812 508.402344 271.683594 519.851562 271.683594 533.859375 C 271.683594 547.863281 283.132812 559.3125 297.128906 559.3125 L 349.542969 559.3125 C 363.542969 559.3125 375 547.863281 375 533.859375 C 374.996094 519.851562 363.539062 508.402344 349.542969 508.402344 " fill-opacity="1" fill-rule="evenodd"/><path fill="#023e8a" d="M 239.203125 304.765625 L 151.261719 304.765625 C 137.257812 304.765625 125.804688 316.222656 125.804688 330.21875 C 125.804688 344.222656 137.253906 355.675781 151.261719 355.675781 L 239.203125 355.675781 C 253.207031 355.675781 264.65625 344.226562 264.65625 330.21875 C 264.65625 316.222656 253.207031 304.765625 239.203125 304.765625 " fill-opacity="1" fill-rule="evenodd"/><g clip-path="url(#9e7796f2c9)"><path fill="#023e8a" d="M 164.875 202.945312 L 114.308594 202.945312 C 100.300781 202.945312 88.851562 214.398438 88.851562 228.402344 C 88.851562 242.398438 100.300781 253.859375 114.308594 253.859375 L 164.875 253.859375 C 178.871094 253.859375 190.320312 242.398438 190.320312 228.402344 C 190.320312 214.398438 178.871094 202.945312 164.875 202.945312 " fill-opacity="1" fill-rule="evenodd"/></g><g fill="#023e8a" fill-opacity="1"><g transform="translate(1349.355653, 517.031695)"><g><path d="M 102.09375 -116.296875 C 101.65625 -121.804688 99.601562 -126.101562 95.9375 -129.1875 C 92.28125 -132.269531 86.734375 -133.8125 79.296875 -133.8125 C 74.554688 -133.8125 70.6875 -133.25 67.6875 -132.125 C 64.6875 -131 62.46875 -129.46875 61.03125 -127.53125 C 59.601562 -125.601562 58.863281 -123.40625 58.8125 -120.9375 C 58.695312 -118.894531 59.066406 -117.0625 59.921875 -115.4375 C 60.773438 -113.8125 62.140625 -112.351562 64.015625 -111.0625 C 65.890625 -109.769531 68.285156 -108.597656 71.203125 -107.546875 C 74.117188 -106.503906 77.585938 -105.566406 81.609375 -104.734375 L 95.484375 -101.765625 C 104.847656 -99.785156 112.859375 -97.171875 119.515625 -93.921875 C 126.179688 -90.671875 131.632812 -86.851562 135.875 -82.46875 C 140.113281 -78.09375 143.238281 -73.179688 145.25 -67.734375 C 147.257812 -62.285156 148.296875 -56.335938 148.359375 -49.890625 C 148.296875 -38.765625 145.507812 -29.347656 140 -21.640625 C 134.5 -13.929688 126.640625 -8.066406 116.421875 -4.046875 C 106.210938 -0.0234375 93.945312 1.984375 79.625 1.984375 C 64.925781 1.984375 52.109375 -0.1875 41.171875 -4.53125 C 30.242188 -8.882812 21.765625 -15.59375 15.734375 -24.65625 C 9.703125 -33.71875 6.660156 -45.320312 6.609375 -59.46875 L 50.21875 -59.46875 C 50.5 -54.289062 51.796875 -49.941406 54.109375 -46.421875 C 56.421875 -42.898438 59.679688 -40.226562 63.890625 -38.40625 C 68.109375 -36.59375 73.132812 -35.6875 78.96875 -35.6875 C 83.863281 -35.6875 87.960938 -36.289062 91.265625 -37.5 C 94.578125 -38.707031 97.085938 -40.382812 98.796875 -42.53125 C 100.503906 -44.6875 101.382812 -47.140625 101.4375 -49.890625 C 101.382812 -52.484375 100.546875 -54.753906 98.921875 -56.703125 C 97.296875 -58.660156 94.632812 -60.421875 90.9375 -61.984375 C 87.25 -63.554688 82.269531 -65.03125 76 -66.40625 L 59.140625 -70.046875 C 44.160156 -73.296875 32.363281 -78.734375 23.75 -86.359375 C 15.132812 -93.984375 10.851562 -104.40625 10.90625 -117.625 C 10.851562 -128.363281 13.726562 -137.765625 19.53125 -145.828125 C 25.34375 -153.898438 33.410156 -160.191406 43.734375 -164.703125 C 54.054688 -169.222656 65.910156 -171.484375 79.296875 -171.484375 C 92.953125 -171.484375 104.765625 -169.195312 114.734375 -164.625 C 124.703125 -160.050781 132.394531 -153.617188 137.8125 -145.328125 C 143.238281 -137.046875 145.984375 -127.367188 146.046875 -116.296875 Z M 102.09375 -116.296875 "/></g></g></g><g fill="#023e8a" fill-opacity="1"><g transform="translate(1515.95309, 517.031695)"><g><path d="M 157.28125 -169.171875 L 157.28125 0 L 118.953125 0 L 57.828125 -88.875 L 56.828125 -88.875 L 56.828125 0 L 10.90625 0 L 10.90625 -169.171875 L 49.890625 -169.171875 L 110.03125 -80.625 L 111.34375 -80.625 L 111.34375 -169.171875 Z M 157.28125 -169.171875 "/></g></g></g><g fill="#023e8a" fill-opacity="1"><g transform="translate(1695.767313, 517.031695)"><g><path d="M 54.84375 0 L 5.28125 0 L 61.125 -169.171875 L 123.90625 -169.171875 L 179.75 0 L 130.1875 0 L 93.171875 -122.578125 L 91.859375 -122.578125 Z M 45.59375 -66.75 L 138.765625 -66.75 L 138.765625 -32.375 L 45.59375 -32.375 Z M 45.59375 -66.75 "/></g></g></g><g fill="#023e8a" fill-opacity="1"><g transform="translate(1892.432933, 517.031695)"><g><path d="M 10.90625 0 L 10.90625 -169.171875 L 84.25 -169.171875 C 97.132812 -169.171875 107.96875 -167.4375 116.75 -163.96875 C 125.539062 -160.5 132.175781 -155.597656 136.65625 -149.265625 C 141.144531 -142.929688 143.390625 -135.46875 143.390625 -126.875 C 143.390625 -120.65625 142.023438 -114.984375 139.296875 -109.859375 C 136.578125 -104.734375 132.765625 -100.453125 127.859375 -97.015625 C 122.960938 -93.578125 117.238281 -91.195312 110.6875 -89.875 L 110.6875 -88.21875 C 117.957031 -87.945312 124.566406 -86.113281 130.515625 -82.71875 C 136.460938 -79.332031 141.195312 -74.679688 144.71875 -68.765625 C 148.238281 -62.847656 150 -55.894531 150 -47.90625 C 150 -38.65625 147.585938 -30.421875 142.765625 -23.203125 C 137.953125 -15.992188 131.113281 -10.320312 122.25 -6.1875 C 113.382812 -2.0625 102.8125 0 90.53125 0 Z M 56.828125 -36.671875 L 78.3125 -36.671875 C 86.019531 -36.671875 91.800781 -38.113281 95.65625 -41 C 99.507812 -43.894531 101.4375 -48.179688 101.4375 -53.859375 C 101.4375 -57.816406 100.523438 -61.171875 98.703125 -63.921875 C 96.890625 -66.679688 94.316406 -68.773438 90.984375 -70.203125 C 87.648438 -71.640625 83.644531 -72.359375 78.96875 -72.359375 L 56.828125 -72.359375 Z M 56.828125 -100.78125 L 75.671875 -100.78125 C 79.679688 -100.78125 83.226562 -101.410156 86.3125 -102.671875 C 89.40625 -103.941406 91.816406 -105.773438 93.546875 -108.171875 C 95.285156 -110.566406 96.15625 -113.5 96.15625 -116.96875 C 96.15625 -122.195312 94.28125 -126.203125 90.53125 -128.984375 C 86.789062 -131.765625 82.054688 -133.15625 76.328125 -133.15625 L 56.828125 -133.15625 Z M 56.828125 -100.78125 "/></g></g></g><g fill="#023e8a" fill-opacity="1"><g transform="translate(2059.360804, 517.031695)"><g><path d="M 10.90625 0 L 10.90625 -169.171875 L 84.25 -169.171875 C 97.132812 -169.171875 107.96875 -167.4375 116.75 -163.96875 C 125.539062 -160.5 132.175781 -155.597656 136.65625 -149.265625 C 141.144531 -142.929688 143.390625 -135.46875 143.390625 -126.875 C 143.390625 -120.65625 142.023438 -114.984375 139.296875 -109.859375 C 136.578125 -104.734375 132.765625 -100.453125 127.859375 -97.015625 C 122.960938 -93.578125 117.238281 -91.195312 110.6875 -89.875 L 110.6875 -88.21875 C 117.957031 -87.945312 124.566406 -86.113281 130.515625 -82.71875 C 136.460938 -79.332031 141.195312 -74.679688 144.71875 -68.765625 C 148.238281 -62.847656 150 -55.894531 150 -47.90625 C 150 -38.65625 147.585938 -30.421875 142.765625 -23.203125 C 137.953125 -15.992188 131.113281 -10.320312 122.25 -6.1875 C 113.382812 -2.0625 102.8125 0 90.53125 0 Z M 56.828125 -36.671875 L 78.3125 -36.671875 C 86.019531 -36.671875 91.800781 -38.113281 95.65625 -41 C 99.507812 -43.894531 101.4375 -48.179688 101.4375 -53.859375 C 101.4375 -57.816406 100.523438 -61.171875 98.703125 -63.921875 C 96.890625 -66.679688 94.316406 -68.773438 90.984375 -70.203125 C 87.648438 -71.640625 83.644531 -72.359375 78.96875 -72.359375 L 56.828125 -72.359375 Z M 56.828125 -100.78125 L 75.671875 -100.78125 C 79.679688 -100.78125 83.226562 -101.410156 86.3125 -102.671875 C 89.40625 -103.941406 91.816406 -105.773438 93.546875 -108.171875 C 95.285156 -110.566406 96.15625 -113.5 96.15625 -116.96875 C 96.15625 -122.195312 94.28125 -126.203125 90.53125 -128.984375 C 86.789062 -131.765625 82.054688 -133.15625 76.328125 -133.15625 L 56.828125 -133.15625 Z M 56.828125 -100.78125 "/></g></g></g><g fill="#023e8a" fill-opacity="1"><g transform="translate(2226.288676, 517.031695)"><g><path d="M 76 0 L 10.90625 0 L 10.90625 -169.171875 L 75.328125 -169.171875 C 92.734375 -169.171875 107.78125 -165.796875 120.46875 -159.046875 C 133.164062 -152.304688 142.96875 -142.613281 149.875 -129.96875 C 156.789062 -117.332031 160.25 -102.203125 160.25 -84.578125 C 160.25 -66.960938 156.804688 -51.832031 149.921875 -39.1875 C 143.035156 -26.550781 133.285156 -16.859375 120.671875 -10.109375 C 108.066406 -3.367188 93.175781 0 76 0 Z M 56.828125 -38.984375 L 74.34375 -38.984375 C 82.707031 -38.984375 89.847656 -40.332031 95.765625 -43.03125 C 101.691406 -45.726562 106.207031 -50.378906 109.3125 -56.984375 C 112.425781 -63.597656 113.984375 -72.796875 113.984375 -84.578125 C 113.984375 -96.367188 112.398438 -105.566406 109.234375 -112.171875 C 106.078125 -118.785156 101.453125 -123.441406 95.359375 -126.140625 C 89.273438 -128.835938 81.828125 -130.1875 73.015625 -130.1875 L 56.828125 -130.1875 Z M 56.828125 -38.984375 "/></g></g></g><g fill="#023e8a" fill-opacity="1"><g transform="translate(2408.415831, 517.031695)"><g><path d="M 10.90625 0 L 10.90625 -169.171875 L 132.828125 -169.171875 L 132.828125 -132.171875 L 56.828125 -132.171875 L 56.828125 -103.09375 L 126.546875 -103.09375 L 126.546875 -66.078125 L 56.828125 -66.078125 L 56.828125 -37 L 132.5 -37 L 132.5 0 Z M 10.90625 0 "/></g></g></g><g fill="#023e8a" fill-opacity="1"><g transform="translate(2564.770237, 517.031695)"><g><path d="M 54.84375 0 L 5.28125 0 L 61.125 -169.171875 L 123.90625 -169.171875 L 179.75 0 L 130.1875 0 L 93.171875 -122.578125 L 91.859375 -122.578125 Z M 45.59375 -66.75 L 138.765625 -66.75 L 138.765625 -32.375 L 45.59375 -32.375 Z M 45.59375 -66.75 "/></g></g></g><g fill="#023e8a" fill-opacity="1"><g transform="translate(2761.435857, 517.031695)"><g><path d="M 10.90625 0 L 10.90625 -169.171875 L 56.828125 -169.171875 L 56.828125 -37 L 125.21875 -37 L 125.21875 0 Z M 10.90625 0 "/></g></g></g></svg>